# xmcd CD database file
#
# Track frame offsets:
#	150
#	27201
#	44558
#	59417
#	71723
#	88057
#	107455
#	126779
#	145650
#	163945
#	180383
#	193626
#	206355
#	225262
#	247039
#	262964
#	278775
#	294216
#
# Disc length: 4138 seconds
#
# Revision: 0
# Processed by: cddbd v1.5.2PL0 Copyright (c) Steve Scherf et al.
# Submitted via: CDex 1.70beta2
#
DISCID=fd102812
DTITLE=Cezar Menotti e Fabiano - Só Modão
DYEAR=2006
DGENRE=Sertanejo
TTITLE0=PoutPourri de Pagodes
TTITLE1=Fica Comigo
TTITLE2=Vou Tomar Todas
TTITLE3=A Última Cerveja
TTITLE4=À Procura de Uma Flor
TTITLE5=Último Adeus
TTITLE6=25 de Dezembro
TTITLE7=Luz da Minha Vida
TTITLE8=Poente da Vida
TTITLE9=Herói Sem Medalha
TTITLE10=Caminhos da Minha Infância
TTITLE11=Como Reconquistar o Seu Amor
TTITLE12=Seu Filho Voltou
TTITLE13=Como eu Chorei
TTITLE14=Porta do Mundo
TTITLE15=Boi Soberano
TTITLE16=Jeitão Caboclo
TTITLE17=Eu Bebi Por Ela
EXTD=YEAR: 2006
EXTT0=
EXTT1=
EXTT2=
EXTT3=
EXTT4=
EXTT5=
EXTT6=
EXTT7=
EXTT8=
EXTT9=
EXTT10=
EXTT11=
EXTT12=
EXTT13=
EXTT14=
EXTT15=
EXTT16=
EXTT17=
PLAYORDER=
